<svg width="128pt" height="128pt" viewBox="0 0 128 128" xmlns="http://www.w3.org/2000/svg"><g fill="#fff"><path d="M0 0h128v128H0V0m56.58 5.81C37.02 8.12 19.25 21.1 10.95 38.94 4.47 52.61 3.6 68.82 8.55 83.11c5.58 16.55 19.05 30.21 35.5 36.05 11.07 4.01 23.35 4.55 34.73 1.59 14.94-3.8 28.09-13.85 35.85-27.15 7.65-12.97 9.93-28.94 6.32-43.55-3.42-14.36-12.61-27.17-24.95-35.21C84.48 7.28 70.24 4.07 56.58 5.81z"/><path d="M36.95 21.54c11.12-6.45 24.45-9.36 37.13-6.56 14.71 2.87 27.7 12.87 34.51 26.18 7.24 13.95 7.3 31.36.15 45.35-4.93 9.55-12.82 18.49-23.58 21.24-3.86 1.1-7.95.91-11.74-.34-4.75-1.55-9.96-1.21-14.48-3.46-2.42-1.58-5.57 1.15-7.75-1.12-2.49-1.59-2.57-4.6-1.14-6.94-2.25-4.42-6.58-7.85-7.23-12.99-.45-4.35-3.77-7.58-6.31-10.88 1.55-3.5 5.12-5.11 7.92-7.41 1.79-1.72 4.44-1.47 6.71-1.3 6.65.95 12.57 4.37 18.9 6.35 5.5.33 12.04-2.25 14.26-7.65-.09-1.85-1.98-2.93-2.98-4.34-2.8-2.89-4.87-6.66-4.67-10.79.09-2.77-2.01-4.8-3.58-6.81 6.51 2.05 13.44 3.06 20.2 1.66-6.4-2.08-12.75-4.31-19.05-6.7 8.55 1.54 17.48 5.87 26.1 2.33-15.44-1.96-27.67-13.97-43.39-14.63-6.75 1.15-13.21-2.11-19.98-1.19m9.33 58.78c.52 3.14 2.32 5.77 4.47 8.02-.33-2.3.88-5.3-1.04-7.08-.86-.23-2.57-.71-3.43-.94z"/><path d="M67.12 42.67c2.59 1.95 4.94 4.29 6.1 7.39-1.64-.16-3.85.26-4.73-1.55-.49-1.94-.72-3.94-1.37-5.84z"/></g><g fill="#293152"><path d="M56.58 5.81C70.24 4.07 84.48 7.28 96 14.84c12.34 8.04 21.53 20.85 24.95 35.21 3.61 14.61 1.33 30.58-6.32 43.55-7.76 13.3-20.91 23.35-35.85 27.15-11.38 2.96-23.66 2.42-34.73-1.59-16.45-5.84-29.92-19.5-35.5-36.05-4.95-14.29-4.08-30.5 2.4-44.17C19.25 21.1 37.02 8.12 56.58 5.81M36.95 21.54c6.77-.92 13.23 2.34 19.98 1.19 15.72.66 27.95 12.67 43.39 14.63-8.62 3.54-17.55-.79-26.1-2.33 6.3 2.39 12.65 4.62 19.05 6.7-6.76 1.4-13.69.39-20.2-1.66 1.57 2.01 3.67 4.04 3.58 6.81-.2 4.13 1.87 7.9 4.67 10.79 1 1.41 2.89 2.49 2.98 4.34-2.22 5.4-8.76 7.98-14.26 7.65-6.33-1.98-12.25-5.4-18.9-6.35-2.27-.17-4.92-.42-6.71 1.3-2.8 2.3-6.37 3.91-7.92 7.41 2.54 3.3 5.86 6.53 6.31 10.88.65 5.14 4.98 8.57 7.23 12.99-1.43 2.34-1.35 5.35 1.14 6.94 2.18 2.27 5.33-.46 7.75 1.12 4.52 2.25 9.73 1.91 14.48 3.46 3.79 1.25 7.88 1.44 11.74.34 10.76-2.75 18.65-11.69 23.58-21.24 7.15-13.99 7.09-31.4-.15-45.35-6.81-13.31-19.8-23.31-34.51-26.18-12.68-2.8-26.01.11-37.13 6.56m30.17 21.13c.65 1.9.88 3.9 1.37 5.84.88 1.81 3.09 1.39 4.73 1.55-1.16-3.1-3.51-5.44-6.1-7.39z"/><path d="M46.28 80.32c.86.23 2.57.71 3.43.94 1.92 1.78.71 4.78 1.04 7.08-2.15-2.25-3.95-4.88-4.47-8.02z"/></g></svg>